<?xml version="1.0" encoding="utf-8"?>
<svg xmlns="http://www.w3.org/2000/svg" viewBox="0 0 500 500" xmlns:bx="https://boxy-svg.com">
  <defs>
    <linearGradient id="gradient-2" bx:pinned="true">
      <stop offset="0" style="stop-color: rgb(6, 103, 133);"/>
      <stop offset="1" style="stop-color: rgb(59, 187, 230);"/>
    </linearGradient>
    <linearGradient id="gradient-2-0" href="#gradient-2" gradientUnits="userSpaceOnUse" x1="304.828" y1="-615.538" x2="304.828" y2="-116.14" spreadMethod="pad" gradientTransform="matrix(0.999974, 0.007262, -0.007229, 0.995176, -55.660055, 613.433803)"/>
  </defs>
  <path d="M 500 250.368 C 500 388.273 388.071 500.067 250 500.067 C 111.929 500.067 0 388.273 0 250.368 C 0 112.463 111.929 0.669 250 0.669 C 388.071 0.669 500 112.463 500 250.368 Z M 269.392 164.536 C 254.725 152.619 228.875 146.661 191.842 146.661 L 135.467 146.661 L 135.467 146.386 L 70.567 146.386 C 72.034 181.953 72.767 215.228 72.767 246.211 C 72.767 277.194 72.034 310.469 70.567 346.036 L 135.467 346.036 L 135.467 282.236 L 175.892 282.236 C 193.309 309.736 206.05 331.003 214.117 346.036 L 288.917 346.036 L 244.367 284.161 C 243.45 282.511 241.892 280.219 239.692 277.286 C 258.575 272.336 271.913 264.361 279.705 253.361 C 287.496 242.361 291.392 228.886 291.392 212.936 C 291.392 192.586 284.059 176.453 269.392 164.536 Z M 172.592 199.461 C 188.359 199.461 200.275 199.919 208.342 200.836 C 216.409 201.753 221.909 203.311 224.842 205.511 C 227.775 207.711 229.242 210.828 229.242 214.861 C 229.242 219.078 227.684 222.286 224.567 224.486 C 221.45 226.686 215.905 228.29 207.93 229.299 C 199.955 230.307 188.175 230.811 172.592 230.811 L 135.467 230.811 L 135.467 199.461 Z M 437.959 196.436 L 384.884 196.436 C 396.251 188.736 406.609 178.469 415.959 165.636 L 341.159 165.636 C 339.876 174.069 335.934 181.311 329.334 187.361 C 322.734 193.411 314.667 196.436 305.134 196.436 L 305.134 245.111 C 314.484 244.378 323.467 243.828 332.084 243.461 L 331.809 289.936 C 331.809 308.453 336.255 322.89 345.147 333.249 C 354.038 343.607 369.209 348.786 390.659 348.786 C 399.459 348.786 406.609 348.603 412.109 348.236 C 417.609 347.869 424.392 346.953 432.459 345.486 C 432.092 333.753 431.909 326.236 431.909 322.936 C 431.909 315.969 432.276 309.094 433.009 302.311 C 429.159 303.044 425.126 303.411 420.909 303.411 C 409.909 303.411 402.255 300.615 397.947 295.024 C 393.638 289.432 391.484 281.686 391.484 271.786 L 391.759 242.636 C 405.692 243.186 421.092 244.011 437.959 245.111 Z" style="stroke: rgb(0, 0, 0); stroke-width: 0px; fill: url(&quot;#gradient-2-0&quot;); fill-rule: nonzero; paint-order: fill;"/>
</svg>